<?xml version="1.0" standalone="no"?>
<!DOCTYPE svg PUBLIC "-//W3C//DTD SVG 20010904//EN"
 "http://www.w3.org/TR/2001/REC-SVG-20010904/DTD/svg10.dtd">
<svg version="1.0" xmlns="http://www.w3.org/2000/svg"
 width="192.000000pt" height="192.000000pt" viewBox="0 0 192.000000 192.000000"
 preserveAspectRatio="xMidYMid meet">
<metadata>
Created by potrace 1.11, written by Peter Selinger 2001-2013
</metadata>
<g transform="translate(0.000000,192.000000) scale(0.100000,-0.100000)"
fill="#000000" stroke="none">
<path d="M812 1896 c-3 -6 -7 -46 -7 -88 -1 -43 -4 -80 -8 -84 -3 -4 -26 -9
-49 -11 -97 -11 -247 -74 -343 -146 -324 -242 -395 -717 -159 -1050 19 -26 34
-49 34 -52 0 -2 -27 -32 -60 -65 -33 -33 -60 -63 -60 -67 0 -12 121 -119 175
-154 116 -76 273 -139 380 -153 61 -8 251 -9 285 -1 14 3 42 8 62 10 95 13
280 99 381 178 182 142 294 322 346 554 31 136 27 266 -13 449 -9 41 -59 159
-94 219 -83 144 -209 268 -355 349 -71 40 -206 91 -263 101 -130 21 -242 26
-252 11z m240 -135 c151 -34 301 -120 411 -236 83 -87 184 -269 201 -360 3
-16 9 -55 15 -85 11 -64 7 -213 -7 -285 -61 -297 -283 -537 -577 -624 -86 -25
-122 -30 -216 -31 -188 -3 -347 48 -507 163 l-43 31 300 300 299 301 0 135 c0
74 1 265 1 423 l1 289 38 -5 c20 -3 58 -11 84 -16z m-248 -256 l1 -88 -50 -14
c-295 -82 -433 -407 -285 -670 l30 -52 -60 -61 c-32 -33 -63 -60 -67 -60 -25
1 -97 139 -124 236 -40 146 -19 336 52 463 91 163 220 265 404 319 99 30 99
30 99 -73z m1 -361 c1 -76 -3 -147 -8 -158 -5 -10 -53 -63 -108 -117 l-99 -99
-15 24 c-70 106 -51 283 42 386 45 50 153 115 178 107 6 -2 10 -59 10 -143z"/>
<path d="M990 1600 l0 -30 168 0 167 0 -45 30 c-44 29 -48 30 -167 30 l-123 0
0 -30z"/>
<path d="M990 1417 l0 -32 250 0 c138 0 250 3 250 6 0 4 -9 17 -19 31 l-20 25
-230 1 -231 1 0 -32z"/>
<path d="M994 1261 c-2 -2 -4 -16 -4 -31 l0 -27 299 0 300 0 -13 31 -12 31
-283 0 c-155 0 -284 -2 -287 -4z"/>
<path d="M994 1081 c-2 -2 -4 -17 -4 -33 l0 -28 315 0 315 0 0 30 c0 24 -4 30
-22 31 -116 3 -601 3 -604 0z"/>
<path d="M959 870 l-32 -30 39 -1 c132 -2 646 -1 649 2 1 2 5 15 7 29 l3 25
-317 3 -318 2 -31 -30z"/>
<path d="M777 690 c-15 -15 -27 -29 -27 -31 0 -2 183 -4 407 -4 l407 0 12 31
13 31 -393 0 -393 0 -26 -27z"/>
<path d="M600 510 c-17 -14 -30 -28 -30 -32 0 -3 196 -6 436 -6 l437 0 23 24
c13 12 24 27 24 31 0 4 -194 8 -430 8 l-431 0 -29 -25z"/>
<path d="M430 341 c0 -5 16 -18 36 -30 34 -20 47 -21 402 -21 l367 0 45 30 45
30 -447 0 c-260 0 -448 -4 -448 -9z"/>
</g>
</svg>
